<svg id="Camada_1" data-name="Camada 1" xmlns="http://www.w3.org/2000/svg" viewBox="0 0 152.72 184.71"><defs><style>.cls-1{fill:#fff;}</style></defs><title>achados1</title><path class="cls-1" d="M76.36,158.34a3.64,3.64,0,0,1-3.64-3.64V142.54a3.64,3.64,0,0,1,3.64-3.64,8,8,0,1,0-7.92-9.12,7,7,0,0,0-.08,1.12,3.64,3.64,0,1,1-7.27,0,16.81,16.81,0,0,1,.14-2.13,15.27,15.27,0,1,1,18.76,17v9a3.63,3.63,0,0,1-3.63,3.64ZM8.46,62.61a27,27,0,0,1,25.72-19H40V10.91A10.92,10.92,0,0,1,50.91,0H87.27a10.91,10.91,0,0,1,10.9,10.91V43.63H104c17.12,0,27.16,14.68,26.91,26.91v2.69a18.93,18.93,0,0,1,14.54,18.4v9.45h3.64a3.64,3.64,0,0,1,3.64,3.64v72.72a7.29,7.29,0,0,1-7.28,7.27H7.27A7.28,7.28,0,0,1,0,177.44V104.72a3.64,3.64,0,0,1,3.64-3.64H7.27v-32Zm6.08,5.56v32.91H62.18V91.63a18.92,18.92,0,0,1,15.2-18.54A18.22,18.22,0,0,1,95.27,58.18h17.45a18,18,0,0,1,7.72,1.72,19.44,19.44,0,0,0-16.45-9H34.17A19.53,19.53,0,0,0,15.41,64.75ZM69.09,29.09A27.19,27.19,0,0,1,90.9,40V21.82H47.27V40A27.2,27.2,0,0,1,69.09,29.09ZM53.65,43.63H84.53a20,20,0,0,0-30.88,0ZM47.27,14.54H90.9V10.91a3.64,3.64,0,0,0-3.63-3.64H50.91a3.64,3.64,0,0,0-3.64,3.64ZM85,72.72h38a10.92,10.92,0,0,0-10.28-7.27H95.27A10.93,10.93,0,0,0,85,72.72ZM69.45,101.08h68.72V91.63A11.65,11.65,0,0,0,126.54,80H81.08A11.65,11.65,0,0,0,69.45,91.63Zm76,76.36V108.36H7.27v69.08H145.45ZM76.36,162.79a3.75,3.75,0,1,0,3.75,3.74A3.74,3.74,0,0,0,76.36,162.79Z"/></svg>