<svg id="Camada_1" data-name="Camada 1" xmlns="http://www.w3.org/2000/svg" viewBox="0 0 162.16 180.18"><defs><style>.cls-1{fill:#fff;}</style></defs><title>agenda</title><path class="cls-1" d="M144.15,18h-9V0h-18V18H45.05V0H27V18H18A17.93,17.93,0,0,0,.09,36L0,162.16a18,18,0,0,0,18,18H144.15a18,18,0,0,0,18-18V36A18,18,0,0,0,144.15,18Zm6.75,130.12a22.33,22.33,0,0,1-22.33,22.33h-95a22.33,22.33,0,0,1-22.33-22.33V53H150.9Z"/><path class="cls-1" d="M61,152.07a7.41,7.41,0,0,1-7.41-7.41V88.92H47.5a7.42,7.42,0,1,1,0-14.83H61a7.42,7.42,0,0,1,7.42,7.41v63.16A7.42,7.42,0,0,1,61,152.07Z"/><path class="cls-1" d="M108.31,152.07a7.42,7.42,0,0,1-7.42-7.41V88.92H94.81a7.42,7.42,0,1,1,0-14.83h13.5a7.41,7.41,0,0,1,7.41,7.41v63.16a7.41,7.41,0,0,1-7.41,7.41Z"/></svg>