<svg id="Camada_1" data-name="Camada 1" xmlns="http://www.w3.org/2000/svg" viewBox="0 0 182.57 182.57"><defs><style>.cls-1{fill:#fff;}</style></defs><title>config</title><path class="cls-1" d="M97,182.57H85.56a16.83,16.83,0,0,1-16.81-16.81v-3.87a74.28,74.28,0,0,1-11.45-4.75l-2.74,2.74a16.81,16.81,0,0,1-23.78,0l-8.09-8.1a16.8,16.8,0,0,1,0-23.77l2.74-2.74a74.28,74.28,0,0,1-4.75-11.45H16.81A16.83,16.83,0,0,1,0,97V85.56A16.83,16.83,0,0,1,16.81,68.75h3.87A74.28,74.28,0,0,1,25.43,57.3l-2.74-2.74a16.8,16.8,0,0,1,0-23.77l8.1-8.1a16.8,16.8,0,0,1,23.77,0l2.74,2.74a74.28,74.28,0,0,1,11.45-4.75V16.81A16.83,16.83,0,0,1,85.56,0H97a16.83,16.83,0,0,1,16.81,16.81v3.87a74.28,74.28,0,0,1,11.45,4.75L128,22.69a16.82,16.82,0,0,1,23.78,0l8.09,8.1a16.8,16.8,0,0,1,0,23.77l-2.74,2.74a74.28,74.28,0,0,1,4.75,11.45h3.87a16.83,16.83,0,0,1,16.81,16.81V97a16.83,16.83,0,0,1-16.81,16.81h-3.87a74.28,74.28,0,0,1-4.75,11.45l2.74,2.74a16.81,16.81,0,0,1,0,23.78l-8.1,8.09a16.8,16.8,0,0,1-23.77,0l-2.74-2.74a74.28,74.28,0,0,1-11.45,4.75v3.87A16.83,16.83,0,0,1,97,182.57ZM59.09,145.9a63.18,63.18,0,0,0,16.34,6.79,5.35,5.35,0,0,1,4,5.18v7.89a6.12,6.12,0,0,0,6.11,6.11H97a6.12,6.12,0,0,0,6.11-6.11v-7.89a5.35,5.35,0,0,1,4-5.18,63.18,63.18,0,0,0,16.34-6.79,5.34,5.34,0,0,1,6.5.83l5.6,5.59a6.11,6.11,0,0,0,8.64,0l8.1-8.1a6.1,6.1,0,0,0,0-8.64l-5.59-5.6a5.34,5.34,0,0,1-.83-6.5,62.84,62.84,0,0,0,6.79-16.34,5.35,5.35,0,0,1,5.18-4h7.89A6.12,6.12,0,0,0,171.87,97V85.56a6.12,6.12,0,0,0-6.11-6.11h-7.89a5.35,5.35,0,0,1-5.18-4,63.1,63.1,0,0,0-6.79-16.35,5.34,5.34,0,0,1,.83-6.5l5.59-5.6a6.09,6.09,0,0,0,0-8.63l-8.1-8.11a6.11,6.11,0,0,0-8.64,0l-5.6,5.6a5.35,5.35,0,0,1-6.5.82,63.18,63.18,0,0,0-16.34-6.79,5.34,5.34,0,0,1-4-5.17v-7.9A6.12,6.12,0,0,0,97,10.7H85.56a6.12,6.12,0,0,0-6.11,6.11V24.7a5.35,5.35,0,0,1-4,5.18,63.18,63.18,0,0,0-16.34,6.79,5.35,5.35,0,0,1-6.5-.82L47,30.25a6.1,6.1,0,0,0-8.63,0l-8.11,8.1a6.11,6.11,0,0,0,0,8.64l5.6,5.6a5.35,5.35,0,0,1,.82,6.5,63.18,63.18,0,0,0-6.79,16.34,5.35,5.35,0,0,1-5.18,4H16.81a6.12,6.12,0,0,0-6.11,6.11V97a6.12,6.12,0,0,0,6.11,6.11H24.7a5.35,5.35,0,0,1,5.18,4,63.18,63.18,0,0,0,6.79,16.34,5.35,5.35,0,0,1-.82,6.5l-5.6,5.6a6.11,6.11,0,0,0,0,8.64l8.1,8.1a6.11,6.11,0,0,0,8.64,0l5.6-5.6a5.37,5.37,0,0,1,6.5-.82Z"/><path class="cls-1" d="M91.29,131A39.73,39.73,0,1,1,131,91.29,39.77,39.77,0,0,1,91.29,131Zm0-68.75a29,29,0,1,0,29,29,29.06,29.06,0,0,0-29-29Z"/></svg>