<svg id="Camada_1" data-name="Camada 1" xmlns="http://www.w3.org/2000/svg" viewBox="0 0 200.11 200.11"><defs><style>.cls-1{fill:#fff;}</style></defs><title>contas2</title><path class="cls-1" d="M193.66,187.2H12.91V118.84l30.4-30.4a18.75,18.75,0,0,0,16.59,0l32.28,32.27a19.41,19.41,0,1,0,36.92,8.39,19.19,19.19,0,0,0-1.93-8.32L165.9,82.05a19.78,19.78,0,1,0-9-9.17l-38.73,38.73a18.75,18.75,0,0,0-16.59,0L69.26,79.33a19.46,19.46,0,1,0-35.05,0l-21.3,21.31V6.46A6.46,6.46,0,1,0,0,6.46v187.2a6.46,6.46,0,0,0,6.46,6.45h187.2a6.46,6.46,0,0,0,0-12.91Z"/></svg>