<svg id="Camada_1" data-name="Camada 1" xmlns="http://www.w3.org/2000/svg" viewBox="0 0 180.8 147.6"><defs><style>.cls-1{fill:#fff;}</style></defs><title>enquete</title><path class="cls-1" d="M160.32,0H20.48A20.51,20.51,0,0,0,0,20.48v81.93a20.51,20.51,0,0,0,20.48,20.48h7.06v21.18a3.51,3.51,0,0,0,3.53,3.53,3.5,3.5,0,0,0,2.5-1l23.69-23.68H160.32a20.51,20.51,0,0,0,20.48-20.48V20.48A20.51,20.51,0,0,0,160.32,0Zm9.28,99.88a12.7,12.7,0,0,1-12.75,12.61H57.55a3.4,3.4,0,0,0-2.38,1L37.42,131V115.81a3.33,3.33,0,0,0-3.36-3.32H24A12.7,12.7,0,0,1,11.25,99.88V22.93A12.69,12.69,0,0,1,24,10.33H156.85a12.69,12.69,0,0,1,12.75,12.6Z"/><path class="cls-1" d="M46,91.12,19.14,66a6.16,6.16,0,1,1,8.43-9L45.68,74,79.2,40.32A6.16,6.16,0,0,1,87.92,49Z"/><path class="cls-1" d="M159.06,82.8,140.27,64.68l18.12-18.79a5.39,5.39,0,0,0-7.76-7.48L132.51,57.19,113.72,39.08a5.39,5.39,0,1,0-7.49,7.76L125,65,106.9,83.75a5.39,5.39,0,0,0,7.77,7.48l18.11-18.79,18.79,18.12a5.39,5.39,0,1,0,7.49-7.76Z"/></svg>