<svg id="Camada_1" data-name="Camada 1" xmlns="http://www.w3.org/2000/svg" viewBox="0 0 200.11 200.13"><defs><style>.cls-1{fill:#fff;}</style></defs><title>home</title><path class="cls-1" d="M194.74,87.05l0,0L113.08,5.4a18.41,18.41,0,0,0-26,0L5.43,87a.3.3,0,0,1-.08.08,18.42,18.42,0,0,0,12.26,31.39,5.44,5.44,0,0,0,.57,0h3.25v60.08A21.59,21.59,0,0,0,43,200.13H74.93a5.86,5.86,0,0,0,5.87-5.86v-47.1a9.85,9.85,0,0,1,9.84-9.84h18.84a9.84,9.84,0,0,1,9.83,9.84v47.1a5.86,5.86,0,0,0,5.87,5.86h31.94a21.58,21.58,0,0,0,21.56-21.56V118.49h3a18.43,18.43,0,0,0,13-31.44Zm-8.31,17.75a6.62,6.62,0,0,1-4.73,2h-8.88a5.86,5.86,0,0,0-5.87,5.86v65.94a9.84,9.84,0,0,1-9.83,9.83H131V147.17a21.59,21.59,0,0,0-21.56-21.57H90.64a21.6,21.6,0,0,0-21.57,21.57V188.4H43a9.84,9.84,0,0,1-9.84-9.83V112.63a5.86,5.86,0,0,0-5.87-5.86H18.57l-.28,0a6.69,6.69,0,0,1-4.61-11.42h0L95.32,13.69a6.7,6.7,0,0,1,9.47,0L186.41,95.3l0,0A6.71,6.71,0,0,1,186.43,104.8Z"/></svg>