<?xml version="1.0" encoding="UTF-8" standalone="no"?>
<!DOCTYPE svg PUBLIC "-//W3C//DTD SVG 1.1//EN" "http://www.w3.org/Graphics/SVG/1.1/DTD/svg11.dtd">
<svg version="1.1" xmlns="http://www.w3.org/2000/svg" xmlns:xlink="http://www.w3.org/1999/xlink" preserveAspectRatio="xMidYMid meet" viewBox="85.49016853099117 45.268381201465694 24 28.630000000000003" width="20" height="24.63"><defs><path d="M99.32 66.67C99.32 66.99 99.57 67.25 99.89 67.25C100.21 67.25 100.47 66.99 100.47 66.67C100.47 65.58 100.47 56.86 100.47 55.77C100.47 55.45 100.21 55.19 99.89 55.19C99.57 55.19 99.32 55.45 99.32 55.77C99.32 56.86 99.32 65.58 99.32 66.67Z" id="bysTnwDkS"></path><path d="M99.32 66.67C99.32 66.99 99.57 67.25 99.89 67.25C100.21 67.25 100.47 66.99 100.47 66.67C100.47 65.58 100.47 56.86 100.47 55.77C100.47 55.45 100.21 55.19 99.89 55.19C99.57 55.19 99.32 55.45 99.32 55.77C99.32 56.86 99.32 65.58 99.32 66.67Z" id="azq8HnLPK"></path><path d="M92.51 66.67C92.51 66.99 92.77 67.25 93.09 67.25C93.41 67.25 93.66 66.99 93.66 66.67C93.66 65.58 93.66 56.86 93.66 55.77C93.66 55.45 93.41 55.19 93.09 55.19C92.77 55.19 92.51 55.45 92.51 55.77C92.51 56.86 92.51 65.58 92.51 66.67Z" id="e2u1ufXiwI"></path><path d="M92.51 66.67C92.51 66.99 92.77 67.25 93.09 67.25C93.41 67.25 93.66 66.99 93.66 66.67C93.66 65.58 93.66 56.86 93.66 55.77C93.66 55.45 93.41 55.19 93.09 55.19C92.77 55.19 92.51 55.45 92.51 55.77C92.51 56.86 92.51 65.58 92.51 66.67Z" id="d3AYSZ2dC"></path><path d="M88.97 70.01C89.51 70.58 90.25 70.9 91.03 70.9C92.13 70.9 100.85 70.9 101.95 70.9C102.73 70.9 103.47 70.58 104.01 70.01C104.54 69.44 104.85 68.65 104.85 67.81C104.85 66.39 104.85 55.02 104.85 53.6C105.92 53.32 106.61 52.28 106.47 51.19C106.33 50.09 105.39 49.27 104.29 49.27C104.09 49.27 103.11 49.27 101.33 49.27C101.33 48.84 101.33 48.6 101.33 48.55C101.34 47.94 101.1 47.36 100.67 46.93C100.24 46.5 99.66 46.26 99.05 46.27C98.54 46.27 94.44 46.27 93.93 46.27C93.32 46.26 92.74 46.5 92.31 46.93C91.88 47.36 91.64 47.94 91.65 48.55C91.65 48.6 91.65 48.84 91.65 49.27C89.87 49.27 88.89 49.27 88.69 49.27C87.59 49.27 86.65 50.09 86.51 51.19C86.37 52.28 87.06 53.32 88.13 53.6C88.13 53.6 88.13 66.39 88.13 67.81C88.13 68.65 88.44 69.44 88.97 70.01ZM89.28 67.81C89.28 66.87 89.28 62.15 89.28 53.65C90.72 53.65 102.26 53.65 103.7 53.65C103.7 62.15 103.7 66.87 103.7 67.81C103.7 68.9 102.93 69.74 101.95 69.74C99.76 69.74 92.13 69.74 91.03 69.74C90.05 69.74 89.28 68.9 89.28 67.81ZM93.13 47.75C93.34 47.53 93.63 47.42 93.93 47.42C94.44 47.42 98.54 47.42 99.05 47.42C99.35 47.42 99.64 47.53 99.85 47.75C100.07 47.96 100.18 48.25 100.18 48.55C100.18 48.6 100.18 48.84 100.18 49.27C99.44 49.27 93.54 49.27 92.8 49.27C92.8 48.88 92.8 48.64 92.8 48.55C92.8 48.25 92.91 47.96 93.13 47.75ZM105.33 51.46C105.33 52.03 104.86 52.5 104.29 52.5C102.73 52.5 90.25 52.5 88.69 52.5C88.12 52.5 87.66 52.03 87.66 51.46C87.66 50.89 88.12 50.42 88.69 50.42C91.81 50.42 102.73 50.42 104.29 50.42C104.86 50.42 105.33 50.89 105.33 51.46Z" id="c15zTLEveu"></path><path d="M88.97 70.01C89.51 70.58 90.25 70.9 91.03 70.9C92.13 70.9 100.85 70.9 101.95 70.9C102.73 70.9 103.47 70.58 104.01 70.01C104.54 69.44 104.85 68.65 104.85 67.81C104.85 66.39 104.85 55.02 104.85 53.6C105.92 53.32 106.61 52.28 106.47 51.19C106.33 50.09 105.39 49.27 104.29 49.27C104.09 49.27 103.11 49.27 101.33 49.27C101.33 48.84 101.33 48.6 101.33 48.55C101.34 47.94 101.1 47.36 100.67 46.93C100.24 46.5 99.66 46.26 99.05 46.27C98.54 46.27 94.44 46.27 93.93 46.27C93.32 46.26 92.74 46.5 92.31 46.93C91.88 47.36 91.64 47.94 91.65 48.55C91.65 48.6 91.65 48.84 91.65 49.27C89.87 49.27 88.89 49.27 88.69 49.27C87.59 49.27 86.65 50.09 86.51 51.19C86.37 52.28 87.06 53.32 88.13 53.6C88.13 53.6 88.13 66.39 88.13 67.81C88.13 68.65 88.44 69.44 88.97 70.01ZM89.28 67.81C89.28 66.87 89.28 62.15 89.28 53.65C90.72 53.65 102.26 53.65 103.7 53.65C103.7 62.15 103.7 66.87 103.7 67.81C103.7 68.9 102.93 69.74 101.95 69.74C99.76 69.74 92.13 69.74 91.03 69.74C90.05 69.74 89.28 68.9 89.28 67.81ZM93.13 47.75C93.34 47.53 93.63 47.42 93.93 47.42C94.44 47.42 98.54 47.42 99.05 47.42C99.35 47.42 99.64 47.53 99.85 47.75C100.07 47.96 100.18 48.25 100.18 48.55C100.18 48.6 100.18 48.84 100.18 49.27C99.44 49.27 93.54 49.27 92.8 49.27C92.8 48.88 92.8 48.64 92.8 48.55C92.8 48.25 92.91 47.96 93.13 47.75ZM105.33 51.46C105.33 52.03 104.86 52.5 104.29 52.5C102.73 52.5 90.25 52.5 88.69 52.5C88.12 52.5 87.66 52.03 87.66 51.46C87.66 50.89 88.12 50.42 88.69 50.42C91.81 50.42 102.73 50.42 104.29 50.42C104.86 50.42 105.33 50.89 105.33 51.46Z" id="b8M9HGPGUy"></path><path d="M95.91 66.67C95.91 66.99 96.17 67.25 96.49 67.25C96.81 67.25 97.07 66.99 97.07 66.67C97.07 65.58 97.07 56.86 97.07 55.77C97.07 55.45 96.81 55.19 96.49 55.19C96.17 55.19 95.91 55.45 95.91 55.77C95.91 56.86 95.91 65.58 95.91 66.67Z" id="c1AhiFtPUy"></path><path d="M95.91 66.67C95.91 66.99 96.17 67.25 96.49 67.25C96.81 67.25 97.07 66.99 97.07 66.67C97.07 65.58 97.07 56.86 97.07 55.77C97.07 55.45 96.81 55.19 96.49 55.19C96.17 55.19 95.91 55.45 95.91 55.77C95.91 56.86 95.91 65.58 95.91 66.67Z" id="cZBqief"></path></defs><g><g><use xlink:href="#bysTnwDkS" opacity="1" fill="#ffffff" fill-opacity="1"></use><g><use xlink:href="#bysTnwDkS" opacity="1" fill-opacity="0" stroke="#000000" stroke-width="1" stroke-opacity="0"></use></g></g><g><use xlink:href="#azq8HnLPK" opacity="1" fill="#000000" fill-opacity="0"></use><g><use xlink:href="#azq8HnLPK" opacity="1" fill-opacity="0" stroke="#000000" stroke-width="1" stroke-opacity="0"></use></g></g><g><use xlink:href="#e2u1ufXiwI" opacity="1" fill="#ffffff" fill-opacity="1"></use><g><use xlink:href="#e2u1ufXiwI" opacity="1" fill-opacity="0" stroke="#000000" stroke-width="1" stroke-opacity="0"></use></g></g><g><use xlink:href="#d3AYSZ2dC" opacity="1" fill="#000000" fill-opacity="0"></use><g><use xlink:href="#d3AYSZ2dC" opacity="1" fill-opacity="0" stroke="#000000" stroke-width="1" stroke-opacity="0"></use></g></g><g><use xlink:href="#c15zTLEveu" opacity="1" fill="#ffffff" fill-opacity="1"></use><g><use xlink:href="#c15zTLEveu" opacity="1" fill-opacity="0" stroke="#000000" stroke-width="1" stroke-opacity="0"></use></g></g><g><use xlink:href="#b8M9HGPGUy" opacity="1" fill="#000000" fill-opacity="0"></use><g><use xlink:href="#b8M9HGPGUy" opacity="1" fill-opacity="0" stroke="#000000" stroke-width="1" stroke-opacity="0"></use></g></g><g><use xlink:href="#c1AhiFtPUy" opacity="1" fill="#ffffff" fill-opacity="1"></use><g><use xlink:href="#c1AhiFtPUy" opacity="1" fill-opacity="0" stroke="#000000" stroke-width="1" stroke-opacity="0"></use></g></g><g><use xlink:href="#cZBqief" opacity="1" fill="#000000" fill-opacity="0"></use><g><use xlink:href="#cZBqief" opacity="1" fill-opacity="0" stroke="#000000" stroke-width="1" stroke-opacity="0"></use></g></g></g></svg>