<svg id="Camada_1" data-name="Camada 1" xmlns="http://www.w3.org/2000/svg" viewBox="0 0 193.2 193.2"><defs><style>.cls-1{fill:#fff;}</style></defs><title>profile</title><path class="cls-1" d="M164.91,28.29A96.6,96.6,0,0,0,28.29,164.91,96.6,96.6,0,0,0,164.91,28.29ZM48.43,166.93a48.91,48.91,0,0,1,96.34,0,85.08,85.08,0,0,1-96.34,0ZM65.88,84.47A30.72,30.72,0,1,1,96.6,115.19,30.75,30.75,0,0,1,65.88,84.47Zm88.7,74.61A60.35,60.35,0,0,0,119.5,119.7a42,42,0,1,0-45.8,0,60.35,60.35,0,0,0-35.08,39.38,85.28,85.28,0,1,1,116,0Z"/></svg>