<svg id="Camada_1" data-name="Camada 1" xmlns="http://www.w3.org/2000/svg" viewBox="0 0 132.13 180.18"><defs><style>.cls-1{fill:#707070;}</style></defs><title>achados2</title><path class="cls-1" d="M66.07,0A66.07,66.07,0,0,0,0,66.07c0,57.05,66.07,114.11,66.07,114.11s66.06-57.06,66.06-114.11A66.07,66.07,0,0,0,66.07,0Zm0,121.91a55.84,55.84,0,1,1,55.84-55.84A55.84,55.84,0,0,1,66.07,121.91Z"/><path class="cls-1" d="M76.27,50.72,66.07,30,55.86,50.72,33,54l16.52,16.1-3.9,22.73L66.07,82.13,86.48,92.86l-3.9-22.73L99.1,54Z"/></svg>