<svg id="Camada_1" data-name="Camada 1" xmlns="http://www.w3.org/2000/svg" viewBox="0 0 179.48 183.97"><defs><style>.cls-1{fill:#707070;}</style></defs><title>filtro</title><path class="cls-1" d="M171.75,0H7.73A7.72,7.72,0,0,0,.86,4.18a7.84,7.84,0,0,0,.61,8.14L61.56,97l.06.09A17.09,17.09,0,0,1,65,107.24v69A7.67,7.67,0,0,0,72.67,184a8,8,0,0,0,3-.6l33.77-12.88a7.3,7.3,0,0,0,5-7.22v-56a17.22,17.22,0,0,1,3.37-10.19l.06-.09L178,12.31a7.8,7.8,0,0,0,.61-8.13A7.69,7.69,0,0,0,171.75,0ZM110.33,91.52a26.61,26.61,0,0,0-5.18,15.72v54.9L74.33,173.89V107.24a26.54,26.54,0,0,0-5.18-15.72L10.81,9.34H168.67Z"/></svg>