<svg id="Camada_1" data-name="Camada 1" xmlns="http://www.w3.org/2000/svg" viewBox="0 0 193.2 193.2"><title>achados3</title><path d="M122.09,124.68A53.57,53.57,0,1,0,68.52,71.11,53.63,53.63,0,0,0,122.09,124.68Zm0-99.59a46,46,0,1,1-46,46A46.08,46.08,0,0,1,122.09,25.09Z"/><path d="M121.53,143.35A71.76,71.76,0,1,0,62.4,112.13L50.67,123.85l-1.59-1.59a3.77,3.77,0,0,0-5.34,0l-38.1,38.1a19.24,19.24,0,0,0,13.6,32.84,19.07,19.07,0,0,0,13.6-5.64l38.1-38.1a3.77,3.77,0,0,0,0-5.34l-1.59-1.59L81.07,130.8A71.26,71.26,0,0,0,121.53,143.35Zm0-135.8A64.13,64.13,0,1,1,57.4,71.67,64.19,64.19,0,0,1,121.53,7.55Zm-94,174.68a11.7,11.7,0,0,1-16.53,0,11.71,11.71,0,0,1,0-16.54l35.44-35.43L48,131.85h0l14.94,14.93Zm36.51-45-8-8,11-11a71.94,71.94,0,0,0,8,8Z"/><path d="M109.17,61.19a3.77,3.77,0,0,0,3.77-3.77,9.15,9.15,0,1,1,13.6,8,15.81,15.81,0,0,0-8.23,13.69v5.39a3.78,3.78,0,0,0,7.55,0V79.1a8.24,8.24,0,0,1,4.36-7.1A16.7,16.7,0,1,0,105.4,57.42,3.76,3.76,0,0,0,109.17,61.19Z"/><path d="M122.09,95.43a3.77,3.77,0,1,0,2.66,1.1A3.79,3.79,0,0,0,122.09,95.43Z"/></svg>