<svg id="Camada_1" data-name="Camada 1" xmlns="http://www.w3.org/2000/svg" viewBox="0 0 183.93 160.21"><title>avisos</title><path d="M181.84,119.47,163.27,88.54l-46-74.41a29.79,29.79,0,0,0-50.68,0L4.51,114.74a29.8,29.8,0,0,0,25.33,45.47H154.12a29.34,29.34,0,0,0,24.63-13A29.72,29.72,0,0,0,181.84,119.47Zm-15,19.64a15.15,15.15,0,0,1-12.73,6.73H29.83a15.43,15.43,0,0,1-13.11-23.55L78.86,21.68a15.41,15.41,0,0,1,26.22,0l46,74.41,17.44,28.7A15.37,15.37,0,0,1,166.84,139.11Z"/><path d="M92,129.09a7.19,7.19,0,0,0,0-14.37h0a7.19,7.19,0,0,0,0,14.37Z"/><path d="M99.15,93.93V41.13a7.19,7.19,0,0,0-14.37,0v52.8a7.19,7.19,0,1,0,14.37,0Z"/></svg>