<svg id="Camada_1" data-name="Camada 1" xmlns="http://www.w3.org/2000/svg" viewBox="0 0 205.25 205.25"><title>voltar_linha</title><path d="M102.63,205.25A102.63,102.63,0,1,1,205.25,102.63,102.74,102.74,0,0,1,102.63,205.25Zm0-190.25a87.63,87.63,0,1,0,87.62,87.63A87.73,87.73,0,0,0,102.63,15Z"/><path d="M144.07,93.38a9,9,0,0,0-1.63-.12H76.59l2-.94a19,19,0,0,0,5.32-3.77L110,62.49A9.75,9.75,0,0,0,111.37,50a9.45,9.45,0,0,0-14.14-1.23L50.11,95.9a9.43,9.43,0,0,0,0,13.33h0l47.12,47.12a9.42,9.42,0,0,0,13.33,0,10.06,10.06,0,0,0,.81-.92A9.76,9.76,0,0,0,110,142.92l-26-26.1a18.76,18.76,0,0,0-4.71-3.44l-2.83-1.27h65.47a9.76,9.76,0,0,0,9.94-7.92A9.43,9.43,0,0,0,144.07,93.38Z"/></svg>