<svg id="Camada_1" data-name="Camada 1" xmlns="http://www.w3.org/2000/svg" viewBox="0 0 181.74 181.74"><defs><style>.cls-1{fill:#f70065;}</style></defs><title>2via</title><path class="cls-1" d="M155.13,26.62A90.87,90.87,0,1,0,26.62,155.13,90.87,90.87,0,0,0,155.13,26.62ZM90.87,171.09a80.22,80.22,0,1,1,80.22-80.22A80.31,80.31,0,0,1,90.87,171.09Z"/><path class="cls-1" d="M96.57,85.55H85.17a11.79,11.79,0,1,1,0-23.57H108a5.33,5.33,0,1,0,0-10.65H96.2V39.54a5.33,5.33,0,0,0-10.65,0V51.33h-.38a22.44,22.44,0,1,0,0,44.87H96.58a11.79,11.79,0,0,1,0,23.57H73.76a5.32,5.32,0,0,0,0,10.64H85.55V142.2a5.33,5.33,0,0,0,10.65,0V130.41h.37a22.43,22.43,0,1,0,0-44.86Z"/></svg>