<svg id="Camada_1" data-name="Camada 1" xmlns="http://www.w3.org/2000/svg" viewBox="0 0 183.99 174.25"><defs><style>.cls-1{fill:#f70065;}</style></defs><title>contas1</title><path class="cls-1" d="M183.68,88.65l-.16.08L157.12,23h12a3.91,3.91,0,1,0,0-7.82H95.57V3.91a3.91,3.91,0,1,0-7.82,0V15.17H14.2a3.91,3.91,0,1,0,0,7.82H26.75L.31,88.65A4,4,0,0,0,0,90.1a32.52,32.52,0,0,0,65,0,4,4,0,0,0-.31-1.45L38.32,23H87.75V143.87c-18.65,1.41-33.24,12.75-33.24,26.47a3.91,3.91,0,0,0,3.91,3.91H124.9a3.91,3.91,0,0,0,3.91-3.91c0-13.72-14.58-25.06-33.24-26.47V23h49.94l-26.24,65.7A3.81,3.81,0,0,0,119,90.1a32.52,32.52,0,0,0,65,0A4,4,0,0,0,183.68,88.65ZM55.29,86.27H9.78L32.57,29.52Zm96-56.71L174,86.27H128.5Z"/></svg>