<svg id="Camada_1" data-name="Camada 1" xmlns="http://www.w3.org/2000/svg" viewBox="0 0 162.16 180.18"><defs><style>.cls-1{fill:#f70065;}</style></defs><title>reservas</title><path class="cls-1" d="M144.15,18h-9V0h-18V18H45.05V0H27V18H18A17.93,17.93,0,0,0,.09,36L0,162.16a18,18,0,0,0,18,18H144.15a18,18,0,0,0,18-18V36A18,18,0,0,0,144.15,18Zm6.75,130.12a22.33,22.33,0,0,1-22.33,22.33h-95a22.33,22.33,0,0,1-22.33-22.33V53H150.9Z"/><path class="cls-1" d="M74.38,147.25,35.63,110.91a6.63,6.63,0,0,1,9.06-9.67l29.37,27.54,52.69-52.86a6.62,6.62,0,1,1,9.38,9.35Z"/></svg>