<svg id="Camada_1" data-name="Camada 1" xmlns="http://www.w3.org/2000/svg" viewBox="0 0 190.25 190.25"><defs><style>.cls-1{fill:#f70065;}</style></defs><title>voltar_cheio</title><path class="cls-1" d="M95.13,0a95.13,95.13,0,1,0,95.12,95.13A95.13,95.13,0,0,0,95.13,0Zm49.23,96.69a9.76,9.76,0,0,1-9.94,7.92H69l2.83,1.27a18.76,18.76,0,0,1,4.71,3.44l26,26.1a9.76,9.76,0,0,1,1.37,12.49,10.06,10.06,0,0,1-.81.92,9.42,9.42,0,0,1-13.33,0L42.61,101.73h0a9.43,9.43,0,0,1,0-13.33L89.73,41.28a9.45,9.45,0,0,1,14.14,1.23A9.75,9.75,0,0,1,102.5,55L76.44,81.05a19,19,0,0,1-5.32,3.77l-2,.94h65.85a9,9,0,0,1,1.63.12A9.43,9.43,0,0,1,144.36,96.69Z"/></svg>