<svg id="Camada_1" data-name="Camada 1" xmlns="http://www.w3.org/2000/svg" viewBox="0 0 75.33 75.33"><title>logo-icone-preto</title><path d="M55.2,61.1l0-4.81c.78-7.42,6.5-26.73,6.5-26.73-.82,0-20.93,27.25-22.59,28.32L36.39,59c-5.77-.07-8.34-3.39-8.21-14.66a99.29,99.29,0,0,1,.53-10L28.58,34C19.41,44.11,10,64.42,2,72.9a7.49,7.49,0,0,0,5.52,2.43H60.29C57.29,72.8,55.49,67.77,55.2,61.1Z"/><path d="M.67,58.26C27.15,15.14,33.81,9.58,38.08,9.5c3.43,0,7.1,3.1,7.22,5.3,0,1.37-6.47,23.7-6.79,27.41C50.5,28.06,65.43,9,69.42,9a8.1,8.1,0,0,1,5.91,3.09V7.53A7.54,7.54,0,0,0,67.79,0H7.53A7.53,7.53,0,0,0,0,7.53V59Z"/><path d="M65.05,65.2c.06,6.18,2.64,8.55,2.76,9.93a1.41,1.41,0,0,1,0,.2,7.54,7.54,0,0,0,7.53-7.54V26.54C71.83,37.53,65.18,53.92,65.05,65.2Z"/></svg>