<svg id="Camada_1" data-name="Camada 1" xmlns="http://www.w3.org/2000/svg" viewBox="0 0 96.55 108.74"><defs><style>.cls-1{fill:#f70065;}</style></defs><title>logo-v-rosa</title><path class="cls-1" d="M60.28,61.1l0-4.81c.78-7.42,6.5-26.73,6.5-26.73-.82,0-20.93,27.25-22.59,28.32L41.47,59c-5.77-.07-8.34-3.39-8.21-14.66a99.29,99.29,0,0,1,.53-10L33.66,34C24.49,44.11,15.05,64.42,7.09,72.9a7.49,7.49,0,0,0,5.52,2.43H65.37C62.37,72.8,60.57,67.77,60.28,61.1Z"/><path class="cls-1" d="M5.75,58.26C32.23,15.14,38.89,9.58,43.16,9.5c3.43,0,7.1,3.1,7.22,5.3,0,1.37-6.47,23.7-6.79,27.41C55.58,28.06,70.51,9,74.5,9a8.1,8.1,0,0,1,5.91,3.09V7.53A7.53,7.53,0,0,0,72.87,0H12.61A7.53,7.53,0,0,0,5.08,7.53V59Z"/><path class="cls-1" d="M70.13,65.2c.06,6.18,2.64,8.55,2.76,9.93a1.41,1.41,0,0,1,0,.2,7.54,7.54,0,0,0,7.53-7.54V26.54C76.91,37.53,70.26,53.92,70.13,65.2Z"/><path class="cls-1" d="M3.36,101.22c8.9-14.5,11.14-16.37,12.58-16.4,1.15,0,2.39,1.05,2.43,1.79,0,.46-2.18,8-2.28,9.21,4-4.76,9.05-11.17,10.39-11.15a3,3,0,0,1,2.69,2.8c0,2.68-4.1,11-4.16,16.08a7.94,7.94,0,0,0,.93,3.34.8.8,0,0,1-.89.68c-2,0-3.21-2.11-3.36-5.4l0-1.61a80.8,80.8,0,0,1,2.19-9c-.28,0-7,9.16-7.6,9.52l-.93.36c-1.94,0-2.8-1.14-2.76-4.93,0-2.12.18-3.37.18-3.37l0-.09c-3.94,4.34-8,14.27-11,14.38-1.67,0-2.15-1.18-1.32-3.09"/><path class="cls-1" d="M29.64,101.17a24.63,24.63,0,0,1,2-8.8c.81-2,3.32-7.81,4.25-7.94h.28a2.14,2.14,0,0,1,2.19,1.78c0,.65-.38,1.34-.39,2v.09c0,.69-.24,1.06-.66,1.1s-3.07,5.78-3.67,9.1a31.79,31.79,0,0,0-.36,3.42l0,.46c.46-.09,6.15-7.69,8.79-12.37,2.12-3.77,3.06-4.63,4.12-4.67A2.63,2.63,0,0,1,48.48,87v.09a5.51,5.51,0,0,1-.71,1.75c-2.14,4.41-3.93,15.94-4.17,16.35l-.79.32h-.14c-1.06,0-2.53-1-2.56-1.84,0-.69.5-4,.5-4.06-.37.09-5.52,6.45-6.63,6.63C31.71,106.19,29.59,105.56,29.64,101.17Z"/><path class="cls-1" d="M50.19,106c-.73,0-2.57-.73-2.7-1.74l0-.47c0-3.83,4-20.88,6.53-20.9,1.11,0,2.34.81,2.43,1.65V85c1-.78,1-.91,2.23-1a3.7,3.7,0,0,1,2.58,1.23,19.65,19.65,0,0,1,3,4.38c0,.51-.33.64-.93.63-1.11,0-2.12-.76-3.8-3.14-4.18,6-7.74,18.17-8.63,18.71l-.51.18Z"/><path class="cls-1" d="M59.6,103.47c.07-5.92,5.56-16.53,9.53-16.48,1.76,0,4.18,2.13,4.64,2.13.29-.5,2.35-3.48,3.51-3.47s2.44.77,2.43,1.51-3.24,8.6-3.31,14.15c0,3.55.87,4.54.86,5.23a1.26,1.26,0,0,1-1.35,1.19,3.1,3.1,0,0,1-2.62-1.47,23.75,23.75,0,0,1-.67-5.87l.07-2.08s-4.8,8.16-6.16,9.44a3,3,0,0,1-2.18,1C61,108.71,59.76,106,59.6,103.47ZM72.08,92c-1-1.91-1.27-2.42-1.59-2.42-2.46,1-7.09,9.39-7.16,15,0,.55.09.92.23.92C63.88,105.46,68.45,97.93,72.08,92Z"/><path class="cls-1" d="M83,107.58c-1.94,0-2.76-1.22-2.77-3.43A38.29,38.29,0,0,1,81,97.78c2-10,9.54-25.9,12.22-29.1.41-.45.72-.69,1.11-.69.62,0,2.15,1.09,2.23,1.78L95.91,71c-1.25,2-.79,3.22-1.75,3.29-.31,0-.45.16-1.08,1.42-6.38,13-9.21,24.64-9.26,28.81a6,6,0,0,0,.5,2.21c0,.41-.41.82-1.16.85Z"/></svg>